<?xml version="1.0" encoding="utf-8"?>
<!-- Generator: Adobe Illustrator 19.2.1, SVG Export Plug-In . SVG Version: 6.00 Build 0)  -->
<svg version="1.1" id="Capa_1" xmlns="http://www.w3.org/2000/svg" xmlns:xlink="http://www.w3.org/1999/xlink" x="0px" y="0px"
	 viewBox="0 0 60 60" style="enable-background:new 0 0 60 60;" xml:space="preserve">
<style type="text/css">
	.st0{fill:#FFFFFF;}
</style>
<g>
	<path class="st0" d="M43.5,43.2c-0.3,0-0.6,0-0.9,0c-0.1,0-0.1,0-0.2,0c-0.3,0-0.7,0-1,0c-0.3,0-0.7,0-1,0c0,0-0.1,0-0.1,0
		c-0.3,0-0.6,0-0.9,0c0,0,0,0-0.1,0C32.5,43,25.8,41.8,22,39.7v3.6v0.4V44v2.1c2.1,2.2,9.6,4.2,19.5,4.2c8.7,0,15.5-1.6,18.5-3.4V44
		v-0.4v-0.4v-3C56.1,42,49.9,43,43.5,43.2C43.6,43.2,43.6,43.2,43.5,43.2z"/>
	<path class="st0" d="M22,30.7v3.6v0.4V35v2.1c0.1,0.1,0.1,0.1,0.2,0.2c0,0,0.1,0.1,0.1,0.1c2.5,2,9.9,3.9,19.2,3.9
		c8.5,0,15.5-1.6,18.5-3.4V35v-0.4v-0.4v-3c-4.3,2-11.6,3-18.5,3C34,34.2,26.2,33,22,30.7z"/>
	<path class="st0" d="M22,48.7V53c0,0.2,0,0.3,0.1,0.4c1,4.3,10.2,6.6,18.9,6.6c8.7,0,17.8-2.2,18.9-6.6C60,53.3,60,53.2,60,53v-3.8
		c-4.3,2-11.5,3-18.5,3C34,52.2,26.1,51,22,48.7z"/>
	<path class="st0" d="M41,18.2c-8.7,0-17.9,2.3-18.9,6.6C22,25,22,25.1,22,25.2v0.4v2.4c2.2,2.2,9.8,4.2,19.5,4.2
		c8.5,0,15.5-1.6,18.5-3.4v-3.2v-0.4c0-0.1,0-0.3-0.1-0.4C58.9,20.6,49.7,18.2,41,18.2z"/>
	<path class="st0" d="M55.4,0H4.6C2.1,0,0,2.1,0,4.6v11.8c0,1,0.3,1.9,0.8,2.6h24c4-1.8,9.9-2.8,15.7-2.8s11.7,0.9,15.7,2.8h2.9
		c0.5-0.7,0.8-1.6,0.8-2.6V4.6C60,2.1,57.9,0,55.4,0z M10.5,15C8,15,6,13,6,10.5S8,6,10.5,6S15,8,15,10.5S13,15,10.5,15z M34,10
		c-0.6,0-1-0.4-1-1s0.4-1,1-1s1,0.4,1,1S34.6,10,34,10z M36,13c-0.6,0-1-0.4-1-1s0.4-1,1-1s1,0.4,1,1S36.6,13,36,13z M38,10
		c-0.6,0-1-0.4-1-1s0.4-1,1-1s1,0.4,1,1S38.6,10,38,10z M40,13c-0.6,0-1-0.4-1-1s0.4-1,1-1s1,0.4,1,1S40.6,13,40,13z M42,10
		c-0.6,0-1-0.4-1-1s0.4-1,1-1s1,0.4,1,1S42.6,10,42,10z M44,13c-0.6,0-1-0.4-1-1s0.4-1,1-1s1,0.4,1,1S44.6,13,44,13z M46,10
		c-0.6,0-1-0.4-1-1s0.4-1,1-1s1,0.4,1,1S46.6,10,46,10z M48,13c-0.6,0-1-0.4-1-1s0.4-1,1-1s1,0.4,1,1S48.6,13,48,13z M50,10
		c-0.6,0-1-0.4-1-1s0.4-1,1-1s1,0.4,1,1S50.6,10,50,10z M52,13c-0.6,0-1-0.4-1-1s0.4-1,1-1s1,0.4,1,1S52.6,13,52,13z"/>
	<path class="st0" d="M20,38c0-0.2,0-3,0-3v-0.4v-0.4v-3.6v-2.6v-2.4v-0.4c0-0.1,0-0.3,0.1-0.4c0.4-1.5,1.8-2.8,3.9-3.8H0.8
		C0.3,21.7,0,22.6,0,23.6v11.8c0,1,0.3,1.9,0.8,2.6H20z M10.5,25c2.5,0,4.5,2,4.5,4.5S13,34,10.5,34S6,32,6,29.5S8,25,10.5,25z"/>
	<path class="st0" d="M22.7,56.6c-1.4-0.9-2.3-1.9-2.6-3.1C20,53.3,20,53.1,20,53v-4.3v-2.6V44v-0.4v-0.4V40H0.8
		C0.3,40.7,0,41.6,0,42.6v11.8C0,56.9,2.1,59,4.6,59h17.5c0,0,0,0,0,0C23.4,59,23.8,57.2,22.7,56.6z M10.5,53C8,53,6,51,6,48.5
		S8,44,10.5,44s4.5,2,4.5,4.5S13,53,10.5,53z"/>
</g>
</svg>
