<?xml version="1.0" encoding="utf-8"?>
<!-- Generator: Adobe Illustrator 19.2.1, SVG Export Plug-In . SVG Version: 6.00 Build 0)  -->
<svg version="1.1" id="Capa_1" xmlns="http://www.w3.org/2000/svg" xmlns:xlink="http://www.w3.org/1999/xlink" x="0px" y="0px"
	 viewBox="0 0 215.1 215.1" style="enable-background:new 0 0 215.1 215.1;" xml:space="preserve">
<style type="text/css">
	.st0{fill:#FFFFFF;}
</style>
<path class="st0" d="M195.1,87.6h-3v-3.1C192,37.9,154.1,0,107.5,0S23,37.9,23,84.5v3.1h-3C9.3,87.6,0.5,96.3,0.5,107v28.4
	c0,10.7,8.7,19.4,19.4,19.4h10.8c2.1,0,3.8-1.2,4.6-3c12.8,25.5,31.5,42.4,32.7,43.5c0.7,0.6,1.5,0.9,2.4,0.9c0,0,0,0,0,0
	c2,0,3.5-1.6,3.5-3.5c0-0.5-0.1-0.9-0.3-1.3c-0.1-0.3-0.2-0.9-0.5-1.7c8.7,11,18.1,17.4,25.2,21.2c5.3,2.7,11.2,4.2,17.1,4.2
	s11.9-1.5,17.1-4.2c6.8-3.6,15.6-9.6,24-19.7c15.8-5.8,27.9-19.5,31.4-36.3h6.9c10.7,0,19.4-8.7,19.4-19.4V107
	C214.5,96.3,205.8,87.6,195.1,87.6z M39.1,55c11.5-26.4,37.8-45,68.4-45c33.7,0,62.3,22.5,71.4,53.4c-4-3.8-8.3-6-12.2-6.8
	c-2.7-7.8-6.7-12.6-7.6-13.6c-1.7-2.3-17.3-22-49.2-22c-10.9,0-22.6,2.4-34.7,7.1C66.6,31.4,51,39.2,39.1,55z M129.5,204.6
	c-4.2,2.2-9,3.4-13.8,3.4c-4.8,0-9.6-1.2-13.8-3.4c-8.7-4.6-21.1-13.7-31-31.3c-0.2-0.3-0.4-0.7-0.6-1.1
	c-1.3-13.5-0.4-30.6,10.3-39.6c8.3-7,22.3-10.2,35.8-13.4c16.9-3.9,34.3-8,43.9-19.4c3,2.8,5.5,6.4,6.6,10.9c3.4,15.3-1,28.4-1,28.6
	c-0.5,1.4-0.1,2.9,1,3.9c0.7,0.6,1.5,0.8,2.3,0.8c0.6,0,1.1-0.1,1.7-0.4c0,0,0.1-0.1,0.2-0.1c-2.2,10.4-5.6,20.8-10.6,29.8
	c-1.5,2.7-3.1,5.2-4.7,7.5c-4.8,2.1-10.2,3.3-15.8,3.3h-5.2c-2-5.5-7.3-9.4-13.4-9.4h-13.7c-7.9,0-14.4,6.4-14.4,14.4
	s6.4,14.4,14.4,14.4h13.7c6.2,0,11.4-3.9,13.4-9.4h5.2c1.5,0,3-0.1,4.5-0.2C139.1,198.9,133.8,202.3,129.5,204.6z M170,170.2
	c4.5-9.9,7.4-20.8,9.3-31.3v6C179.2,154.5,175.7,163.3,170,170.2z"/>
</svg>
